<svg id="Layer_1" data-name="Layer 1" xmlns="http://www.w3.org/2000/svg" viewBox="0 0 828.18 811.877"><defs><style>.cls-1,.cls-2{fill:none;stroke-linecap:round;stroke-linejoin:round;stroke-width:4px;}.cls-1{stroke:#009640;}.cls-2{stroke:#e30613;}</style></defs><line class="cls-1" x1="34.6" y1="308.14" x2="34.6" y2="591.61"/><line class="cls-1" x1="261.37" y1="308.14" x2="261.37" y2="591.61"/><line class="cls-1" x1="431.45" y1="308.14" x2="431.45" y2="591.61"/><line class="cls-1" x1="658.22" y1="308.14" x2="658.22" y2="591.61"/><line class="cls-2" x1="826.18" y1="308.14" x2="826.18" y2="591.61"/><line class="cls-2" x1="34.6" y1="308.14" x2="263.5" y2="308.14"/><line class="cls-1" x1="263.5" y1="308.14" x2="431.45" y2="308.14"/><line class="cls-1" x1="431.45" y1="306.73" x2="658.22" y2="306.73"/><line class="cls-1" x1="658.22" y1="308.14" x2="826.18" y2="308.14"/><line class="cls-2" x1="34.6" y1="591.61" x2="263.5" y2="591.61"/><line class="cls-1" x1="263.5" y1="591.61" x2="431.45" y2="591.61"/><line class="cls-1" x1="431.45" y1="593.03" x2="658.22" y2="593.03"/><line class="cls-1" x1="658.22" y1="591.61" x2="826.18" y2="591.61"/><polyline class="cls-2" points="34.6 308.14 2 316.88 2 582.87 34.6 591.61"/><line class="cls-1" x1="666.73" y1="196.18" x2="817.67" y2="196.18"/><line class="cls-1" x1="666.73" y1="153.66" x2="817.67" y2="153.66"/><line class="cls-1" x1="666.73" y1="43.1" x2="817.67" y2="43.1"/><polyline class="cls-2" points="658.22 308.14 666.73 299.64 666.73 43.1 678.12 2 806.28 2 817.67 43.1 817.67 286.03 826.18 294.54 826.18 308.14"/><line class="cls-1" x1="422.946" y1="196.18" x2="272.006" y2="196.18"/><line class="cls-1" x1="422.946" y1="153.66" x2="272.006" y2="153.66"/><line class="cls-1" x1="422.946" y1="43.1" x2="272.006" y2="43.1"/><polyline class="cls-2" points="431.456 308.14 422.946 299.64 422.946 43.1 411.556 2 283.396 2 272.006 43.1 272.006 286.03 263.496 294.54 263.496 308.14"/><line class="cls-2" x1="431.45" y1="308.14" x2="431.45" y2="138.77"/><line class="cls-2" x1="658.22" y1="308.14" x2="658.22" y2="138.77"/><line class="cls-1" x1="451.3" y1="140.9" x2="638.38" y2="140.9"/><polyline class="cls-2" points="431.45 138.77 451.3 138.77 451.3 144.44"/><polyline class="cls-2" points="658.22 138.77 638.38 138.77 638.38 144.44"/><path class="cls-2" d="M439.65,145.27V133.94c0-20.75,9.39-31.3,18.78-37.56H644.24c9.39,6.26,18.78,16.81,18.78,37.56v11.33" transform="translate(-6.5 -6.5)"/><line class="cls-2" x1="431.45" y1="591.607" x2="431.45" y2="760.977"/><line class="cls-2" x1="658.22" y1="591.607" x2="658.22" y2="760.977"/><line class="cls-1" x1="451.3" y1="758.857" x2="638.38" y2="758.857"/><polyline class="cls-2" points="431.45 760.977 451.3 760.977 451.3 755.307"/><polyline class="cls-2" points="658.22 760.977 638.38 760.977 638.38 755.307"/><path class="cls-2" d="M439.65,767.477v11.34c0,20.74,9.39,31.3,18.78,37.56H644.24c9.39-6.26,18.78-16.82,18.78-37.56v-11.34" transform="translate(-6.5 -6.5)"/><path class="cls-2" d="M270,598.107v11.34l5.67,5.67,8.39,96.38h71.69l-35.14,14.79c-4.01,1.69-2.76,7.88,1.59,7.88H423.78l5.67-127.55,8.5-8.51" transform="translate(-6.5 -6.5)"/><path class="cls-2" d="M664.72,598.107l8.51,8.51L678.9,711.5h73.7l-35.14,14.79c-4.01,1.69-2.76,7.88,1.59,7.88h97.58l10.38-119.05,5.67-5.67v-11.34" transform="translate(-6.5 -6.5)"/></svg>