<svg id="Layer_1" data-name="Layer 1" xmlns="http://www.w3.org/2000/svg" viewBox="0 0 912.504 738.173"><defs><style>.cls-1,.cls-2,.cls-3{fill:none;stroke-linecap:round;stroke-linejoin:round;stroke-width:4px;}.cls-1{stroke:#9c9100;}.cls-2{stroke:#009640;}.cls-3{stroke:#e30613;}</style></defs><line class="cls-1" x1="639.087" y1="227.354" x2="725.189" y2="141.252"/><line class="cls-1" x1="273.417" y1="227.354" x2="187.315" y2="141.252"/><line class="cls-1" x1="639.087" y1="510.819" x2="725.189" y2="596.921"/><line class="cls-1" x1="273.417" y1="510.819" x2="187.315" y2="596.921"/><line class="cls-2" x1="272" y1="227.354" x2="272" y2="510.819"/><line class="cls-2" x1="158.614" y1="228.772" x2="158.614" y2="509.402"/><line class="cls-2" x1="46.646" y1="228.772" x2="46.646" y2="509.402"/><line class="cls-2" x1="155.78" y1="228.772" x2="48.063" y2="228.772"/><line class="cls-2" x1="155.78" y1="509.402" x2="48.063" y2="509.402"/><polyline class="cls-3" points="158.614 227.354 158.614 228.772 155.78 228.772 48.063 189.566 48.063 228.772 2 228.772 2 509.402 48.063 509.402 48.063 548.607 155.78 509.402 158.614 509.402 158.614 510.819"/><line class="cls-2" x1="640.504" y1="227.354" x2="640.504" y2="510.819"/><line class="cls-2" x1="753.89" y1="228.772" x2="753.89" y2="509.402"/><line class="cls-2" x1="865.858" y1="228.772" x2="865.858" y2="509.402"/><line class="cls-2" x1="756.724" y1="228.772" x2="864.441" y2="228.772"/><line class="cls-2" x1="756.724" y1="509.402" x2="864.441" y2="509.402"/><polyline class="cls-3" points="753.89 227.354 753.89 228.772 756.724 228.772 864.441 189.566 864.441 228.772 910.504 228.772 910.504 509.402 864.441 509.402 864.441 548.607 756.724 509.402 753.89 509.402 753.89 510.819"/><line class="cls-2" x1="273.417" y1="227.354" x2="273.417" y2="113.969"/><line class="cls-2" x1="639.087" y1="227.354" x2="639.087" y2="113.969"/><line class="cls-2" x1="158.614" y1="227.354" x2="753.89" y2="227.354"/><line class="cls-2" x1="276.252" y1="113.969" x2="636.252" y2="113.969"/><polyline class="cls-3" points="639.087 113.969 725.189 141.252 753.89 227.354"/><polyline class="cls-3" points="273.417 113.969 187.315 141.252 158.614 227.354"/><polyline class="cls-3" points="273.417 113.969 276.252 113.969 317.005 2 595.499 2 636.252 113.969 639.087 113.969"/><line class="cls-2" x1="273.417" y1="510.819" x2="273.417" y2="624.205"/><line class="cls-2" x1="639.087" y1="510.819" x2="639.087" y2="624.205"/><line class="cls-2" x1="158.614" y1="510.819" x2="753.89" y2="510.819"/><line class="cls-2" x1="276.252" y1="624.205" x2="636.252" y2="624.205"/><polyline class="cls-3" points="639.087 624.205 725.189 596.921 753.89 510.819"/><polyline class="cls-3" points="273.417 624.205 187.315 596.921 158.614 510.819"/><polyline class="cls-3" points="273.417 624.205 276.252 624.205 317.005 736.173 595.499 736.173 636.252 624.205 639.087 624.205"/></svg>