<svg id="Layer_1" data-name="Layer 1" xmlns="http://www.w3.org/2000/svg" viewBox="0 0 1676.746 600.149"><defs><style>.cls-1,.cls-2{fill:none;stroke-linecap:round;stroke-linejoin:round;stroke-width:6px;}.cls-1{stroke:#009640;}.cls-2{stroke:#e30613;}</style></defs><line class="cls-1" x1="541.02" y1="3" x2="541.02" y2="429.34"/><line class="cls-1" x1="951.476" y1="3" x2="951.476" y2="429.34"/><line class="cls-1" x1="1390.276" y1="3" x2="1390.276" y2="429.34"/><line class="cls-2" x1="1673.746" y1="3" x2="1673.746" y2="435"/><line class="cls-1" x1="102.22" y1="3" x2="102.22" y2="430.31"/><polyline class="cls-2" points="102.22 3 3 3 3 389.21 113.56 435"/><polyline class="cls-2" points="1673.746 3 852.256 3 852.256 389.21 962.816 435"/><line class="cls-2" x1="102.22" y1="3" x2="826.75" y2="3"/><line class="cls-1" x1="113.56" y1="448.609" x2="529.68" y2="448.609"/><line class="cls-1" x1="552.36" y1="435.009" x2="826.75" y2="435.009"/><line class="cls-1" x1="962.816" y1="448.609" x2="1378.946" y2="448.609"/><line class="cls-1" x1="1401.616" y1="435.009" x2="1673.746" y2="435.009"/><polyline class="cls-2" points="113.56 435.009 113.56 597.149 529.68 597.149 529.68 429.339"/><polyline class="cls-2" points="552.36 429.339 552.36 597.149 826.75 597.149 826.75 3"/><polyline class="cls-2" points="962.816 435 962.816 597.149 1378.946 597.149 1378.946 429.339"/><polyline class="cls-2" points="1401.616 429.339 1401.616 597.149 1673.746 597.149 1673.746 435.009"/><line class="cls-2" x1="529.68" y1="429.339" x2="552.36" y2="429.339"/><line class="cls-2" x1="1378.946" y1="429.339" x2="1401.616" y2="429.339"/></svg>