<svg id="Layer_1" data-name="Layer 1" xmlns="http://www.w3.org/2000/svg" viewBox="0 0 1676.746 883.606"><defs><style>.cls-1,.cls-2{fill:none;stroke-linecap:round;stroke-linejoin:round;stroke-width:6px;}.cls-1{stroke:#009640;}.cls-2{stroke:#e30613;}</style></defs><line class="cls-1" x1="541.02" y1="228.07" x2="541.02" y2="655.54"/><line class="cls-1" x1="1390.276" y1="228.07" x2="1390.276" y2="655.54"/><line class="cls-2" x1="1673.746" y1="222.4" x2="1673.746" y2="661.2"/><line class="cls-1" x1="102.22" y1="227.1" x2="102.22" y2="656.51"/><polyline class="cls-2" points="113.56 222.4 3 268.19 3 615.41 113.56 661.2"/><line class="cls-1" x1="951.476" y1="227.1" x2="951.476" y2="656.51"/><polyline class="cls-2" points="962.816 222.4 852.256 268.19 852.256 615.41 962.816 661.2"/><line class="cls-1" x1="113.56" y1="208.8" x2="529.68" y2="208.8"/><line class="cls-1" x1="552.36" y1="222.4" x2="826.75" y2="222.4"/><line class="cls-1" x1="962.816" y1="208.8" x2="1378.946" y2="208.8"/><line class="cls-1" x1="1401.616" y1="222.4" x2="1673.746" y2="222.4"/><polyline class="cls-2" points="113.56 222.4 113.56 3 529.68 3 529.68 228.07"/><polyline class="cls-2" points="552.36 228.07 552.36 3 826.75 3 826.75 655.536"/><polyline class="cls-2" points="962.816 222.4 962.816 3 1378.946 3 1378.946 228.07"/><polyline class="cls-2" points="1401.616 228.07 1401.616 3 1673.746 3 1673.746 222.4"/><line class="cls-2" x1="529.68" y1="228.07" x2="552.36" y2="228.07"/><line class="cls-2" x1="1378.946" y1="228.07" x2="1401.616" y2="228.07"/><line class="cls-1" x1="113.56" y1="674.806" x2="529.68" y2="674.806"/><line class="cls-1" x1="552.36" y1="661.206" x2="826.75" y2="661.206"/><line class="cls-1" x1="962.816" y1="674.806" x2="1378.946" y2="674.806"/><line class="cls-1" x1="1401.616" y1="661.206" x2="1673.746" y2="661.206"/><polyline class="cls-2" points="113.56 661.206 113.56 880.606 529.68 880.606 529.68 655.536"/><polyline class="cls-2" points="552.36 655.536 552.36 880.606 826.75 880.606 826.75 655.536"/><polyline class="cls-2" points="962.816 661.2 962.816 880.606 1378.946 880.606 1378.946 655.536"/><polyline class="cls-2" points="1401.616 655.536 1401.616 880.606 1673.746 880.606 1673.746 661.206"/><line class="cls-2" x1="529.68" y1="655.536" x2="552.36" y2="655.536"/><line class="cls-2" x1="1378.946" y1="655.536" x2="1401.616" y2="655.536"/></svg>