<svg id="Layer_1" data-name="Layer 1" xmlns="http://www.w3.org/2000/svg" viewBox="0 0 1396.811 977.283"><defs><style>.cls-1,.cls-2{fill:none;stroke-linecap:round;stroke-linejoin:round;stroke-width:5px;}.cls-1{stroke:#009640;}.cls-2{stroke:#e30613;}</style></defs><line class="cls-1" x1="130.059" y1="2.5" x2="130.059" y2="852.894"/><line class="cls-1" x1="152.736" y1="2.5" x2="152.736" y2="852.894"/><line class="cls-1" x1="762.185" y1="2.5" x2="762.185" y2="852.894"/><line class="cls-1" x1="784.862" y1="2.5" x2="784.862" y2="852.894"/><line class="cls-1" x1="152.736" y1="852.894" x2="762.185" y2="852.894"/><line class="cls-1" x1="152.736" y1="875.571" x2="762.185" y2="875.571"/><polyline class="cls-2" points="130.059 2.5 1394.311 2.5 1394.311 852.894 762.185 852.894 762.185 875.571"/><polyline class="cls-2" points="130.059 852.894 152.736 852.894 152.736 875.571"/><polyline class="cls-2" points="130.059 2.5 2.5 130.059 2.5 841.734 130.059 852.894"/><polyline class="cls-2" points="152.736 875.571 166.909 974.783 662.972 974.783 762.185 875.571"/><path class="cls-2" d="M43.14,754.016A102.044,102.044,0,0,0,123.914,793.7" transform="translate(-6.004 -6.004)"/></svg>