<svg xmlns="http://www.w3.org/2000/svg" viewBox="0 0 1567.78 1402.29"><defs><style>.a,.b,.c{fill:none;stroke-linecap:round;stroke-linejoin:round;}.a{stroke:#009fe3;}.a,.b{stroke-width:7px;}.b{stroke:#e30613;}.c{stroke:#8a1002;stroke-width:6px;}</style></defs><line class="a" x1="228.75" y1="877.22" x2="228.75" y2="1235.06"/><polyline class="b" points="228.75 877.22 75 877.22 75 1240.16 228.75 1240.16"/><line class="a" x1="810.54" y1="877.22" x2="810.54" y2="1235.06"/><line class="a" x1="964.29" y1="877.22" x2="964.29" y2="1240.16"/><polyline class="b" points="810.54 877.22 1551.17 877.22 1551.17 1240.16 810.54 1240.16"/><line class="b" x1="228.75" y1="877.22" x2="810.54" y2="877.22"/><line class="a" x1="228.75" y1="1235.06" x2="810.54" y2="1235.06"/><polyline class="b" points="228.75 1235.06 228.75 1388.81 810.54 1388.81 810.54 1235.06"/><polyline class="c" points="59.69 870.97 65.36 865.3 65.36 814.28 217.98 814.28 217.98 865.3 223.65 870.97"/><polyline class="c" points="59.69 870.97 54.02 876.64 3 890.31 3 1224.5 54.02 1238.17 59.69 1243.84"/><polyline class="c" points="59.69 1243.84 100.94 1298.83 217.98 1298.83 217.98 1249.51 223.65 1243.84"/><polyline class="c" points="815.64 870.97 821.31 865.3 821.31 814.28 973.92 814.28 973.92 865.3 979.59 870.97"/><polyline class="c" points="979.59 870.97 985.26 865.3 985.26 814.28 1564.78 814.28 1564.78 870.97"/><line class="c" x1="1564.78" y1="870.97" x2="1564.78" y2="1243.84"/><polyline class="c" points="815.64 1243.84 821.31 1249.51 821.31 1298.83 938.35 1298.83 979.59 1243.84"/><polyline class="c" points="979.59 1243.84 1020.84 1298.83 1523.53 1298.83 1564.78 1243.84"/><polyline class="c" points="223.65 870.97 229.32 865.3 229.32 814.28 809.97 814.28 809.97 865.3 815.64 870.97"/><polyline class="c" points="223.65 1243.84 229.32 1249.51 229.32 1399.29 809.97 1399.29 809.97 1249.51 815.64 1243.84"/><line class="a" x1="500.42" y1="217.3" x2="500.42" y2="557.46"/><polyline class="b" points="500.42 217.3 358.69 217.3 358.69 557.46 500.42 557.46"/><line class="a" x1="1067.35" y1="217.3" x2="1067.35" y2="557.46"/><polyline class="b" points="1067.35 217.3 1209.09 217.3 1209.09 557.46 1067.35 557.46"/><line class="a" x1="500.42" y1="217.3" x2="1067.35" y2="217.3"/><polyline class="b" points="495.32 217.3 495.32 75.57 1072.45 75.57 1072.45 217.3"/><line class="a" x1="500.42" y1="557.46" x2="1067.35" y2="557.46"/><polyline class="b" points="495.32 557.46 495.32 699.19 1072.45 699.19 1072.45 557.46"/><polyline class="c" points="495.32 212.2 486.82 216.45 348.49 216.45 286.12 228.5 286.12 546.26 348.49 558.31 486.82 558.31 495.32 562.56"/><polyline class="c" points="1072.45 212.2 1080.96 216.45 1219.29 216.45 1281.65 228.5 1281.65 546.26 1219.29 558.31 1080.96 558.31 1072.45 562.56"/><path class="c" d="M500.83,217.7l-56.7-26.44V75.19l47.8-8.42a10.89,10.89,0,0,0,8.9-10.61V8.5H1078V56.16a10.88,10.88,0,0,0,8.9,10.61l47.79,8.42V191.26L1078,217.7" transform="translate(-5.5 -5.5)"/><path class="c" d="M500.83,568.06l-56.7,26.44V710.57l47.8,8.43a10.87,10.87,0,0,1,8.9,10.6v47.66H1078V729.6a10.86,10.86,0,0,1,8.9-10.6l47.79-8.43V594.5L1078,568.06" transform="translate(-5.5 -5.5)"/></svg>